<?xml version="1.0" encoding="UTF-8"?><svg id="Camada_1" xmlns="http://www.w3.org/2000/svg" viewBox="0 0 249.05 75"><defs><style>.cls-1,.cls-2{fill:#fff;}.cls-2{fill-rule:evenodd;}</style></defs><path class="cls-2" d="M187.72,45.32l22.55-34.33c1.88-2.86,5.63-3.73,8.32-1.94,2.69,1.79,3.34,5.6,1.46,8.46l-22.55,34.33c-1.88,2.86-5.63,3.73-8.32,1.94-2.69-1.79-3.34-5.6-1.46-8.46m-9.46-19.69l9.54-14.64c1.87-2.87,5.63-3.73,8.32-1.94,2.69,1.79,3.33,5.59,1.46,8.46l-9.54,14.64c-1.87,2.87-5.63,3.73-8.32,1.94-2.69-1.79-3.33-5.59-1.46-8.46Zm-9.46-19.69l2.02-3.06c1.89-2.86,5.63-3.73,8.32-1.94,2.69,1.8,3.35,5.6,1.46,8.46l-2.02,3.06c-1.89,2.86-5.63,3.73-8.32,1.94-2.69-1.8-3.35-5.6-1.46-8.46Zm28.38,59.08L238.2,2.87c1.89-2.86,5.63-3.73,8.32-1.94,2.69,1.8,3.35,5.6,1.46,8.46l-41.02,62.14c-1.89,2.86-5.63,3.73-8.32,1.94-2.69-1.79-3.35-5.6-1.46-8.46Z"/><path class="cls-1" d="M151.92,53.83l-10.01,.11c-12.54,.13-13.07,15.47-1.38,15.47,3.29,0,6.02-1.16,8.17-3.46,3.13-3.36,3.22-7.89,3.22-12.11m6.66,20.2h-6.66v-.68c-.35-4.23-4.25,1.65-12.93,1.65-4.14,0-7.38-1.09-9.72-3.28-2.34-2.19-3.85-5.09-3.85-8.72,0-7.75,4.84-14.35,14.05-14.7l12.44-.47c0-8.22-2.85-10.7-8.55-10.7-5,0-9.51,1.7-13.54,5.11v-6.81c4.08-2.6,8.78-3.89,14.1-3.89,9.76,0,14.64,5.16,14.64,15.49v27Zm-42.67,0h-6.66v-23.68c0-8.82-3.21-13.22-9.65-13.22-3.32,0-6.08,1.25-8.25,3.75-2.19,2.51-3.27,5.66-3.27,9.47v23.68h-6.66V32.51h6.66v1.12c-.04,3.67,4.53-2.09,12.16-2.09,4.54,0,9.52,1.7,11.93,4.63,2.4,2.92,3.73,6.94,3.73,12.47v25.38Zm-53.88-11.6c0,3.81,1.47,5.72,4.42,5.72,1.19,0,2.26-.15,3.2-.44v6.01c-.51,.12-1.19,.26-2.05,.37-.84,.12-1.74,.19-2.69,.19-1.33,0-2.57-.22-3.74-.65-1.16-.44-2.17-1.09-3.02-1.99-.86-.89-1.54-2.01-2.03-3.35-.5-1.33-.75-2.89-.75-4.68v-31.1h6.66v29.92Zm-3.25-40.47c-1.19,0-2.2-.4-3.05-1.22-.83-.8-1.25-1.83-1.25-3.07s.42-2.28,1.25-3.1c.84-.83,1.85-1.25,3.05-1.25s2.26,.42,3.1,1.25c.86,.82,1.29,1.85,1.29,3.1s-.43,2.2-1.29,3.03c-.84,.84-1.88,1.26-3.1,1.26Z"/><path class="cls-1" d="M18.4,69.73c1.01,3.04,2.5,4.68,4.89,4.68s3.95-1.57,4.99-4.7L46.71,14.57c.06-.19,.12-.37,.16-.55h-7.36l-16.02,50.11h-.42L7.35,14.02H0c.05,.19,.12,.39,.17,.57l18.22,55.14Z"/></svg>