<svg xmlns="http://www.w3.org/2000/svg" viewBox="0 0 42 42"><path d="M41.85 12.34c-.16-3.36-.93-6.34-3.39-8.8-2.45-2.46-5.43-3.22-8.8-3.39-3.46-.2-13.86-.2-17.32 0-3.35.16-6.33.93-8.8 3.38S.32 8.97.15 12.33c-.2 3.47-.2 13.86 0 17.33.16 3.36.93 6.34 3.39 8.8 2.46 2.46 5.43 3.22 8.8 3.39 3.47.2 13.86.2 17.32 0 3.36-.16 6.34-.93 8.8-3.39 2.45-2.46 3.22-5.44 3.39-8.8.2-3.47.2-13.85 0-17.32zm-4.48 21.04c-.73 1.84-2.15 3.25-3.99 3.99-2.76 1.1-9.32.84-12.38.84s-9.62.24-12.38-.84c-1.84-.73-3.25-2.15-3.99-3.99-1.1-2.76-.84-9.33-.84-12.38s-.24-9.62.84-12.38c.73-1.84 2.15-3.25 3.99-3.99 2.76-1.1 9.32-.84 12.38-.84s9.62-.24 12.38.84c1.84.73 3.25 2.15 3.99 3.99 1.1 2.76.84 9.33.84 12.38s.25 9.62-.84 12.38zm-9.69-10.53l.8-5.22h-5.01v-3.39c0-1.43.7-2.82 2.94-2.82h2.28V6.97s-2.07-.35-4.04-.35c-4.13 0-6.82 2.5-6.82 7.03v3.98h-4.59v5.22h4.59v12.62h5.64V22.85h4.21z" fill="#fff"/></svg>